<?xml version="1.0" standalone="no"?>
<!DOCTYPE svg PUBLIC "-//W3C//DTD SVG 20010904//EN"
 "http://www.w3.org/TR/2001/REC-SVG-20010904/DTD/svg10.dtd">
<svg version="1.0" xmlns="http://www.w3.org/2000/svg"
 width="256.000000pt" height="256.000000pt" viewBox="0 0 256.000000 256.000000"
 preserveAspectRatio="xMidYMid meet">
<metadata>
Created by potrace 1.14, written by Peter Selinger 2001-2017
</metadata>
<g transform="translate(0.000000,256.000000) scale(0.100000,-0.100000)"
fill="#000000" stroke="none">
<path d="M1085 2544 c-545 -89 -967 -504 -1065 -1047 -22 -123 -20 -345 5
-462 21 -100 68 -241 107 -320 84 -168 239 -356 372 -450 16 -11 34 -25 41
-32 27 -26 193 -114 269 -143 80 -31 196 -63 271 -76 77 -12 310 -12 390 2
501 83 904 441 1036 921 33 121 46 228 44 372 -2 150 -18 243 -67 386 -146
429 -516 752 -966 842 -101 20 -335 24 -437 7z m360 -299 c116 -23 239 -70
344 -130 140 -79 307 -265 375 -417 68 -153 86 -230 90 -397 2 -57 -1 -123 -5
-145 -4 -23 -10 -58 -13 -80 -8 -50 -51 -176 -78 -229 -124 -244 -358 -438
-610 -506 -111 -31 -134 -34 -258 -35 -401 -6 -758 229 -912 598 -54 132 -72
227 -72 381 1 206 49 367 161 537 48 71 165 197 223 239 137 99 305 169 444
185 23 3 42 7 44 8 5 5 236 -2 267 -9z"/>
<path d="M1610 1642 c-14 -2 -38 -14 -55 -27 -30 -23 -232 -195 -339 -289 -32
-28 -64 -54 -70 -58 -7 -4 -40 22 -82 64 -98 101 -165 122 -234 76 -64 -44
-88 -101 -70 -168 11 -41 248 -288 306 -319 60 -32 121 -16 199 53 22 19 142
122 266 228 231 197 259 228 259 293 0 97 -81 163 -180 147z"/>
</g>
</svg>
