<svg xmlns="http://www.w3.org/2000/svg" viewBox="0 0 512 512" height="22" width="22"><path fill="#474651" d="M256 211c-24.8 0-45 20.2-45 45 0 24.8 20.2 45 45 45 24.8 0 45-20.2 45-45C301 231.2 280.8 211 256 211z"/><path fill="#474651" d="M501.7 211.8l-61.7-20.2c-2.4-6.8-5.2-13.5-8.3-20.1l28.6-57.3c2.9-5.8 1.8-12.7-2.8-17.3l-42.4-42.4c-4.6-4.6-11.5-5.7-17.3-2.8l-57.3 28.6c-6.6-3.2-13.3-6-20.1-8.3l-20.2-61.7C298.2 4.1 292.5 0 286 0h-60c-6.5 0-12.2 4.1-14.2 10.3l-20.2 61.7c-6.8 2.4-13.5 5.2-20.1 8.3l-57.3-28.6c-5.8-2.9-12.7-1.8-17.3 2.8L54.5 96.9c-4.6 4.6-5.7 11.5-2.8 17.3l28.6 57.3c-3.2 6.6-6 13.3-8.3 20.1l-61.7 20.2C4.1 213.8 0 219.5 0 226v60c0 6.5 4.1 12.2 10.3 14.2l61.7 20.2c2.4 6.8 5.2 13.5 8.3 20.1l-28.6 57.3c-2.9 5.8-1.8 12.7 2.8 17.3l42.4 42.4c4.6 4.6 11.6 5.7 17.3 2.8l57.3-28.6c6.6 3.2 13.3 6 20.1 8.3l20.2 61.7C213.8 507.9 219.5 512 226 512h60c6.5 0 12.2-4.1 14.2-10.3l20.2-61.7c6.8-2.4 13.5-5.2 20.1-8.3l57.3 28.6c5.8 2.9 12.7 1.7 17.3-2.8l42.4-42.4c4.6-4.6 5.7-11.5 2.8-17.3l-28.6-57.3c3.2-6.6 6-13.3 8.3-20.1l61.7-20.2C507.9 298.2 512 292.5 512 286v-60C512 219.5 507.9 213.8 501.7 211.8zM256 361c-57.9 0-105-47.1-105-105s47.1-105 105-105 105 47.1 105 105S313.9 361 256 361z"/></svg>